<?xml version="1.0" standalone="no"?>
<!DOCTYPE svg PUBLIC "-//W3C//DTD SVG 20010904//EN"
 "http://www.w3.org/TR/2001/REC-SVG-20010904/DTD/svg10.dtd">
<svg version="1.0" xmlns="http://www.w3.org/2000/svg"
 width="100" height="100" viewBox="0 0 1000 1300"
 preserveAspectRatio="xMidYMid meet">

<g transform="translate(0.000000,1536.000000) scale(0.100000,-0.100000)"
fill="#6A0DAD" stroke="none">
<path d="M5107 13045 c-16 -8 -70 -50 -120 -93 -51 -43 -596 -482 -1212 -975
-1498 -1198 -1785 -1429 -1950 -1566 -77 -64 -174 -144 -216 -178 -42 -33
-202 -164 -355 -290 -154 -126 -358 -292 -454 -369 -186 -150 -265 -227 -275
-267 -7 -25 15 -79 35 -92 6 -3 26 -30 45 -60 38 -60 203 -202 275 -238 36
-17 63 -22 130 -22 103 0 134 16 252 125 l78 71 2 -1638 3 -1638 21 -45 c27
-57 106 -132 164 -154 42 -15 285 -16 3620 -14 l3575 3 50 23 c60 28 100 64
128 117 l22 40 5 1668 5 1667 114 -92 c63 -51 124 -101 136 -110 39 -31 103
-42 167 -29 74 16 150 67 270 180 l93 89 -2 57 c-3 78 -40 151 -111 219 -31
30 -185 161 -342 292 -157 130 -413 343 -570 474 -292 243 -648 539 -1081 896
-600 496 -754 624 -1030 855 -162 135 -442 368 -624 519 -181 150 -393 326
-470 390 -228 191 -242 200 -300 200 -27 0 -63 -7 -78 -15z m122 -872 c20 -15
90 -72 156 -128 66 -56 224 -187 351 -291 127 -104 401 -331 610 -504 208
-173 503 -416 654 -540 151 -124 410 -338 575 -474 165 -136 374 -308 465
-381 91 -73 177 -144 193 -158 l27 -26 -2 -1728 -3 -1728 -3120 0 -3120 0 -3
1728 -2 1729 27 23 c16 13 303 243 638 511 336 268 691 553 790 633 603 489
1702 1361 1714 1361 8 0 30 -12 50 -27z"/>
<path d="M5070 10486 c-48 -18 -139 -64 -172 -88 -26 -18 -28 -24 -28 -89 l0
-69 -154 0 c-125 0 -181 5 -293 26 -76 15 -158 30 -183 35 -60 10 -161 -6
-226 -37 -70 -33 -147 -118 -170 -186 -9 -29 -17 -82 -17 -118 0 -124 74 -216
211 -262 64 -21 85 -22 450 -26 l383 -3 -3 -112 -3 -112 -147 -3 c-136 -2
-148 -4 -148 -21 0 -10 -15 -30 -33 -44 -27 -21 -46 -25 -115 -28 -59 -3 -86
-9 -98 -21 -20 -20 -36 -117 -27 -171 5 -33 14 -44 61 -75 l55 -37 712 0 712
0 41 29 42 29 0 114 c0 113 0 114 -26 123 -14 6 -58 10 -99 10 -68 0 -75 2
-94 26 -12 15 -21 35 -21 45 0 18 -10 19 -129 19 -71 0 -136 3 -145 6 -13 5
-16 25 -16 115 l0 109 358 0 c379 0 435 6 523 51 64 32 124 98 145 160 67 196
-55 378 -281 420 -64 12 -85 9 -277 -32 -120 -25 -157 -29 -302 -29 l-166 0 0
69 c0 82 -2 84 -141 151 -87 42 -121 47 -179 26z"/>
<path d="M4867 8870 c-117 -19 -266 -64 -442 -135 -203 -82 -276 -108 -455
-160 -110 -33 -142 -38 -265 -42 -162 -6 -254 9 -350 56 -78 39 -177 129 -205
186 -27 56 -41 60 -185 60 -121 -1 -153 -12 -174 -63 -8 -19 -10 -246 -9 -787
l3 -760 40 -20 c33 -16 64 -20 170 -23 147 -3 151 -1 182 69 34 77 141 150
313 214 70 27 85 28 230 29 119 0 170 -4 220 -18 121 -33 495 -156 550 -181
78 -34 296 -92 420 -111 136 -21 347 -14 481 14 166 36 284 88 464 206 l110
72 305 -6 c291 -5 307 -6 347 -27 86 -46 101 -97 95 -311 l-4 -142 -27 -6
c-14 -3 -64 -17 -110 -31 -108 -32 -151 -70 -151 -133 0 -48 28 -100 62 -118
13 -6 54 -20 92 -32 65 -19 93 -20 611 -20 384 0 552 3 576 12 92 31 149 98
149 175 0 80 -50 124 -159 143 l-68 11 -7 152 c-20 483 -155 830 -425 1098
-124 122 -262 207 -431 263 -177 59 -254 69 -540 71 -292 2 -307 6 -403 90
-100 88 -245 149 -442 187 -115 22 -470 33 -568 18z"/>
<path d="M1845 5225 c-163 -37 -305 -126 -374 -234 -43 -66 -69 -149 -83 -256
-9 -77 -8 -103 6 -174 23 -113 55 -173 140 -257 85 -85 168 -140 380 -253 166
-89 235 -141 256 -191 17 -40 5 -131 -22 -165 -86 -110 -372 -93 -632 37 -32
16 -59 28 -60 26 -1 -2 -19 -84 -40 -183 -21 -99 -40 -187 -42 -197 -9 -34
258 -116 453 -138 174 -20 379 13 516 82 86 43 195 154 234 238 45 95 67 205
58 293 -11 115 -25 168 -61 228 -76 127 -183 216 -394 329 -236 127 -258 140
-290 166 -60 51 -86 139 -57 191 63 113 286 115 524 3 47 -22 87 -39 89 -38 7
8 83 381 79 388 -7 12 -155 69 -240 92 -93 26 -352 34 -440 13z"/>
<path d="M5250 5035 l0 -185 230 0 230 0 0 -795 0 -795 195 0 195 0 1 23 c0
12 0 346 -1 742 -1 396 2 744 6 773 l7 52 228 0 229 0 0 163 c0 89 -3 172 -6
185 l-6 22 -654 0 -654 0 0 -185z"/>
<path d="M3270 4773 c-123 -13 -355 -75 -384 -103 -5 -5 9 -81 34 -178 l42
-170 74 34 c128 58 209 79 309 78 193 -1 278 -72 260 -219 l-7 -55 -127 0
c-393 0 -620 -133 -706 -414 -47 -153 35 -359 178 -444 87 -52 151 -65 297
-59 127 5 189 20 328 76 29 11 55 21 57 21 2 0 5 -17 7 -37 l3 -38 154 -3 154
-3 -7 143 c-4 78 -7 311 -7 517 1 342 -1 382 -19 459 -32 135 -91 235 -176
301 -99 76 -285 113 -464 94z m325 -990 c-4 -65 -8 -123 -10 -128 -5 -18 -125
-74 -195 -91 -78 -20 -175 -15 -214 11 -29 19 -56 63 -56 92 0 69 52 143 129
182 55 29 164 49 264 50 l88 1 -6 -117z"/>
<path d="M4681 4770 c-58 -12 -162 -47 -229 -77 -29 -12 -55 -23 -57 -23 -3 0
-10 20 -16 45 l-11 45 -124 0 -124 0 0 -750 0 -750 185 0 185 0 0 539 0 539
42 31 c131 97 303 72 367 -54 l26 -49 3 -503 3 -503 185 0 185 0 -3 513 c-4
492 -5 515 -26 592 -28 103 -81 209 -131 266 -42 48 -129 100 -208 125 -61 18
-195 26 -252 14z"/>
<path d="M6812 4764 c-93 -20 -173 -67 -245 -143 -77 -82 -129 -179 -163 -307
-25 -90 -27 -116 -28 -289 l-1 -190 34 -100 c77 -227 169 -355 310 -429 100
-52 199 -70 345 -63 155 7 347 50 359 80 6 17 -16 313 -24 321 -3 4 -28 -5
-55 -19 -61 -31 -125 -43 -269 -51 -133 -8 -201 8 -264 63 -44 37 -98 136
-108 196 l-6 37 401 0 400 0 5 23 c15 60 19 201 7 283 -32 236 -91 370 -213
484 -104 97 -312 142 -485 104z m226 -290 c44 -18 97 -67 119 -109 21 -39 43
-122 43 -161 0 -42 -12 -44 -281 -44 l-219 0 0 45 c0 52 37 152 76 202 54 71
178 103 262 67z"/>
<path d="M7550 4756 c0 -5 26 -51 58 -101 105 -162 356 -571 372 -606 10 -22
-1 -44 -117 -227 -70 -111 -180 -282 -244 -380 l-115 -177 45 -2 c25 -2 123
-7 217 -13 94 -6 180 -7 192 -3 15 6 61 80 145 232 67 123 127 224 132 225 6
0 62 -100 125 -224 l116 -224 39 -9 c24 -5 103 -4 195 3 85 6 176 12 202 13
l48 2 -29 45 c-16 25 -128 201 -249 393 l-222 347 134 208 c183 284 306 480
311 495 4 9 -48 12 -227 12 l-233 0 -28 -50 c-15 -27 -62 -114 -105 -192 -42
-79 -79 -143 -82 -143 -3 0 -10 10 -16 23 -23 48 -177 342 -183 349 -10 12
-481 16 -481 4z"/>
</g>
</svg>
